# xmcd
#
# Track frame offsets:
#	150
#	17572
#	34842
#	48452
#	64720
#	80115
#	93247
#	107787
#	122135
#	140125
#	155207
#	167742
#	180140
#	198270
#
# Disc length: 2836 seconds
#
# Revision: 4
# Processed by: cddbd v1.5.1PL2 Copyright (c) Steve Scherf et al.
# Submitted via: audiograbber 1.83.01
#
DISCID=bd0b120e
DTITLE=Various Artist - Hot Hits Country 42
DYEAR=1900
DGENRE=
TTITLE0=Reba McEntire - Heart Is A Lonely Hunter
TTITLE1=George Ducas - Lipstick Promises
TTITLE2=Brooks and Dunn - Little Miss Honkey Tonk
TTITLE3=George Strait - Adalida
TTITLE4=Doug Stone - Faith In Me Faith In You
TTITLE5=Aaron Tippin - She Feels Like A Brand New Man Tonight
TTITLE6=Tanya Tucker - Between The Two Of Them
TTITLE7=Brother Phelps - Any Way The Wind Blows
TTITLE8=Alan Jackson - Song For The Life
TTITLE9=Randy Travis - The Box
TTITLE10=Pam Tillis - I Was Blown Away
TTITLE11=Terry McBride and The Ride - Somebody Will
TTITLE12=Shania Twain - Whose Bed Have Your Boots Been Under
TTITLE13=Mark Chesnutt - Gonna Get A Life
EXTD=
EXTT0=McEntire - Reba
EXTT1=Ducas - George
EXTT2=Brooks And Dunn
EXTT3=Strait - George
EXTT4=Stone - Doug
EXTT5=Tippin - Aaron
EXTT6=Tucker - Tanya
EXTT7=Brother Phelps
EXTT8=Jackson - Alan
EXTT9=Travis - Randy
EXTT10=Tillis - Pam
EXTT11=McBride And The Ride - Terry
EXTT12=Twain - Shania
EXTT13=Chestnut - Mark
PLAYORDER=
